<?xml version="1.0" standalone="no"?><!DOCTYPE svg PUBLIC "-//W3C//DTD SVG 1.1//EN" "http://www.w3.org/Graphics/SVG/1.1/DTD/svg11.dtd"><svg t="1711526550095" class="icon" viewBox="0 0 1024 1024" version="1.1" xmlns="http://www.w3.org/2000/svg" p-id="4339" width="256" height="256" xmlns:xlink="http://www.w3.org/1999/xlink"><path d="M512 981.333333C288.149333 981.333333 106.666667 799.850667 106.666667 576S288.149333 170.666667 512 170.666667s405.333333 181.482667 405.333333 405.333333c0 105.642667-40.661333 205.013333-112.170666 279.893333A404.224 404.224 0 0 1 512 981.333333z m0-85.333333c88.64 0 171.434667-36.16 231.466667-99.029333A318.72 318.72 0 0 0 832 576c0-176.725333-143.274667-320-320-320-176.725333 0-320 143.274667-320 320 0 176.725333 143.274667 320 320 320z m435.498667-648.832a42.666667 42.666667 0 0 1-60.330667 60.330667l-85.333333-85.333334a42.666667 42.666667 0 0 1 60.330666-60.330666l85.333334 85.333333z m-810.666667 60.330667a42.666667 42.666667 0 0 1-60.330667-60.330667l85.333334-85.333333a42.666667 42.666667 0 0 1 60.330666 60.330666l-85.333333 85.333334zM554.666667 576a42.666667 42.666667 0 1 1-85.333334 0V362.666667a42.666667 42.666667 0 1 1 85.333334 0v213.333333zM405.333333 128a42.666667 42.666667 0 1 1 0-85.333333h213.333334a42.666667 42.666667 0 1 1 0 85.333333H405.333333z" fill="#515151" p-id="4340"></path></svg>